<svg xmlns="http://www.w3.org/2000/svg" xmlns:xlink="http://www.w3.org/1999/xlink" width="154" height="154" viewBox="0 0 154 154">
  <defs>
    <clipPath id="clip-path">
      <rect id="Rectangle_802" data-name="Rectangle 802" width="154" height="154" transform="translate(-10063 18949)" fill="#fff" stroke="#707070" stroke-width="1"/>
    </clipPath>
  </defs>
  <g id="Mask_Group_306" data-name="Mask Group 306" transform="translate(10063 -18949)" clip-path="url(#clip-path)">
    <g id="Group_1437" data-name="Group 1437" transform="matrix(-0.799, 0.602, -0.602, -0.799, -9921.438, 19030.486)">
      <path id="Path_4614" data-name="Path 4614" d="M.3,0C-.826,0,1,7.16,9.511,18.865,19.29,32.317,28.237,41.7,45.465,55.153S87.412,82.059,87.412,77.9c0-1.509-14.337-18.161-34.181-33C41.145,35.862,28.641,24.922,20.05,13.828,11.638,4.239,1.312,0,.3,0Z" transform="translate(0 0)"/>
      <path id="Path_4615" data-name="Path 4615" d="M41.467,0c-2.031,0-3.678,2.47-3.678,5.517s.118,3.349,3.678,11.693,8.455,19.227,10.562,21.684c.212.247,3.328,3.434-6.047,1.773C37.766,39.21,17.073,32.9,10.017,32.535c-12.328-.647-10.581,4.02-8.653,6.359,0,0,19.651,3.1,35.131,6.776a246.046,246.046,0,0,1,26.791,7.922c1.534,1.217,5.343-.912,6.672-2.918a4.329,4.329,0,0,0,0-4.274A105.571,105.571,0,0,1,57.867,29.616C52.816,20.843,47.375,7.474,47.375,6.832,47.375,3.785,43.5,0,41.467,0Z" transform="translate(27.173 30.926)"/>
    </g>
  </g>
</svg>
