<svg width="23" height="23" viewBox="0 0 23 23" fill="none" xmlns="http://www.w3.org/2000/svg">
<path d="M11.5 0C5.014 0 0 4.74968 0 11.1554C0 14.502 1.3685 17.4117 3.611 19.4012C3.795 19.5507 3.91 19.8037 3.9215 20.0568L3.979 22.1038C4.025 22.7594 4.6805 23.1849 5.2785 22.9204L7.5555 21.9198C7.751 21.8508 7.9695 21.8163 8.165 21.8508C9.2 22.1613 10.35 22.3108 11.5 22.3108C17.986 22.3108 23 17.5612 23 11.1554C23 4.74968 17.986 0 11.5 0ZM18.4 8.57932L15.0305 13.95C14.49 14.7896 13.34 15.0081 12.535 14.3755L9.844 12.386C9.6025 12.202 9.2575 12.202 9.016 12.386L5.382 15.1461C4.899 15.5256 4.2665 14.9506 4.6 14.4215L7.9695 9.05084C8.51 8.21131 9.66 7.9928 10.465 8.59082L13.156 10.6149C13.409 10.7989 13.7425 10.7989 13.984 10.6149L17.618 7.85479C18.101 7.47528 18.7335 8.0503 18.4 8.57932Z" fill="#0085FF"/>
</svg>
