<svg width="28" height="28" viewBox="0 0 28 28" fill="none" xmlns="http://www.w3.org/2000/svg">
<path d="M19.8022 0H8.19778L0 8.19778V19.8022L8.19778 28H19.8022L28 19.8022V8.19778L19.8022 0ZM24.8889 18.5111L18.5111 24.8889H9.48889L3.11111 18.5111V9.48889L9.48889 3.11111H18.5111L24.8889 9.48889V18.5111Z" fill="#D28412"/>
<path d="M14 21.7778C14.8591 21.7778 15.5556 21.0813 15.5556 20.2222C15.5556 19.3631 14.8591 18.6667 14 18.6667C13.1409 18.6667 12.4444 19.3631 12.4444 20.2222C12.4444 21.0813 13.1409 21.7778 14 21.7778Z" fill="#D28412"/>
<path d="M12.4444 6.22222H15.5556V17.1111H12.4444V6.22222Z" fill="#D28412"/>
</svg>
