<svg width="26" height="28" viewBox="0 0 26 28" fill="none" xmlns="http://www.w3.org/2000/svg">
<path d="M21 19.6C19.894 19.6 18.9 20.034 18.158 20.734L8.274 14.98C8.344 14.658 8.4 14.336 8.4 14C8.4 13.664 8.344 13.342 8.274 13.02L18.144 7.266V7.266C18.886 7.966 19.894 8.4 21 8.4C23.324 8.4 25.2 6.524 25.2 4.2C25.2 1.876 23.324 0 21 0C18.676 0 16.8 1.876 16.8 4.2C16.8 4.536 16.856 4.872 16.926 5.18V5.18L7.056 10.934C6.3 10.234 5.306 9.8 4.2 9.8C1.876 9.8 0 11.676 0 14C0 16.324 1.876 18.2 4.2 18.2C5.306 18.2 6.3 17.766 7.056 17.066L16.926 22.834C16.856 23.142 16.8 23.464 16.8 23.8C16.8 26.124 18.676 28 21 28C23.324 28 25.2 26.124 25.2 23.8C25.2 21.476 23.324 19.6 21 19.6Z" fill="#D28312"/>
</svg>
